M48
INCH,TZ
T1C0.059
T2C0.067
T3C0.087
T4C0.157
T5C0.331
%
G90
G05
T1
X74781Y-42038
X75361Y-42373
X76159Y-39651
X76739Y-39986
T2
X33039Y-15354
X33039Y-22835
X33039Y-30315
X33039Y-37795
X37039Y-15354
X37039Y-22835
X37039Y-30315
X37039Y-37795
X40520Y-15354
X40520Y-22835
X40520Y-30315
X40520Y-37795
X44520Y-15354
X44520Y-22835
X44520Y-30315
X44520Y-37795
X48000Y-15354
X48000Y-22835
X48000Y-30315
X48000Y-37795
X52000Y-15354
X52000Y-22835
X52000Y-30315
X52000Y-37795
X55480Y-15354
X55480Y-22835
X55480Y-30315
X55480Y-37795
X59480Y-15354
X59480Y-22835
X59480Y-30315
X59480Y-37795
X62961Y-15354
X62961Y-22835
X62961Y-30315
X62961Y-37795
X66961Y-15354
X66961Y-22835
X66961Y-30315
X66961Y-37795
X67284Y-45850
X70441Y-15354
X70441Y-22835
X70441Y-30315
X70441Y-37795
X70748Y-47850
X73780Y-49591
X74441Y-15354
X74441Y-22835
X74441Y-30315
X74441Y-37795
X77244Y-51591
X77520Y-43094
X80276Y-53331
X80984Y-45094
X83740Y-55331
X84016Y-46835
X87480Y-48835
T3
X32283Y-19094
X32283Y-26575
X32283Y-34055
X46260Y-12598
X46260Y-20079
X46260Y-26575
X46260Y-40551
X61220Y-12598
X61220Y-20079
X61220Y-26575
X61220Y-40551
X74803Y-45866
X75197Y-19094
X75197Y-26575
X75197Y-34055
X77362Y-54823
X83858Y-43602
T4
X35039Y-15354
X35039Y-22835
X35039Y-30315
X35039Y-37795
X42520Y-15354
X42520Y-22835
X42520Y-30315
X42520Y-37795
X50000Y-15354
X50000Y-22835
X50000Y-30315
X50000Y-37795
X57480Y-15354
X57480Y-22835
X57480Y-30315
X57480Y-37795
X64961Y-15354
X64961Y-22835
X64961Y-30315
X64961Y-37795
X69016Y-46850
X72441Y-15354
X72441Y-22835
X72441Y-30315
X72441Y-37795
X75512Y-50591
X79252Y-44094
X82008Y-54331
X85748Y-47835
T5
X38780Y-25000
X38780Y-35630
X53740Y-17815
X68701Y-25000
X68701Y-35630
X80610Y-49213
T0
M30
