G04 #@! TF.FileFunction,Profile,NP*
%FSLAX46Y46*%
G04 Gerber Fmt 4.6, Leading zero omitted, Abs format (unit mm)*
G04 Created by KiCad (PCBNEW 4.0.7) date 2017 December 06, Wednesday 22:25:54*
%MOMM*%
%LPD*%
G01*
G04 APERTURE LIST*
%ADD10C,0.100000*%
%ADD11C,0.150000*%
G04 APERTURE END LIST*
D10*
D11*
X83500000Y-49000000D02*
X86000000Y-49000000D01*
X99000000Y-49500000D02*
X105000000Y-49500000D01*
X105000000Y-49000000D02*
X99000000Y-49000000D01*
X98000000Y-49000000D02*
X87000000Y-49000000D01*
X98000000Y-49500000D02*
X98000000Y-49000000D01*
X87000000Y-49500000D02*
X98000000Y-49500000D01*
X87000000Y-49000000D02*
X87000000Y-49500000D01*
X86000000Y-49500000D02*
X83500000Y-49500000D01*
X106000000Y-49500000D02*
X121000000Y-49500000D01*
X121000000Y-49000000D02*
X106000000Y-49000000D01*
X122000000Y-49500000D02*
X134000000Y-49500000D01*
X134000000Y-49000000D02*
X122000000Y-49000000D01*
X162000000Y-49500000D02*
X146500000Y-49500000D01*
X146500000Y-49000000D02*
X162000000Y-49000000D01*
X145500000Y-49500000D02*
X139000000Y-49500000D01*
X139000000Y-49000000D02*
X145500000Y-49000000D01*
X179750000Y-49500000D02*
X163000000Y-49500000D01*
X163000000Y-49000000D02*
X179750000Y-49000000D01*
X180750000Y-49000000D02*
X189500000Y-49000000D01*
X189500000Y-49500000D02*
X180750000Y-49500000D01*
X179750000Y-49000000D02*
X179750000Y-49500000D01*
X180750000Y-49000000D02*
X180750000Y-49500000D01*
X189500000Y-49000000D02*
X189500000Y-49500000D01*
X163000000Y-49000000D02*
X163000000Y-49500000D01*
X162000000Y-49000000D02*
X162000000Y-49500000D01*
X139000000Y-49000000D02*
X139000000Y-49500000D01*
X146500000Y-49000000D02*
X146500000Y-49500000D01*
X122000000Y-49500000D02*
X122000000Y-49000000D01*
X121000000Y-49000000D02*
X121000000Y-49500000D01*
X145500000Y-49000000D02*
X145500000Y-49500000D01*
X134000000Y-49500000D02*
X134000000Y-49000000D01*
X106000000Y-49000000D02*
X106000000Y-49500000D01*
X105000000Y-49500000D02*
X105000000Y-49000000D01*
X99000000Y-49000000D02*
X99000000Y-49500000D01*
X86000000Y-49500000D02*
X86000000Y-49000000D01*
X83500000Y-49000000D02*
X83500000Y-49500000D01*
X173750000Y-104500000D02*
X163750000Y-122000000D01*
X211500000Y-149500000D02*
X229250000Y-118500000D01*
X211500000Y-149500000D02*
X163750000Y-122000000D01*
X192500000Y-97250000D02*
X229250000Y-118500000D01*
X192500000Y-30500000D02*
X192500000Y-97250000D01*
X80500000Y-30500000D02*
X192500000Y-30500000D01*
X80500000Y-104500000D02*
X173750000Y-104500000D01*
X80500000Y-104500000D02*
X80500000Y-30500000D01*
M02*
