M48
INCH,TZ
T1C0.024
T2C0.028
T3C0.040
T4C0.043
T5C0.059
%
G90
G05
T2
X38780Y-13819
X38780Y-16890
X46260Y-13819
X46260Y-16890
X46260Y-21299
X46260Y-24370
X46260Y-28780
X46260Y-31850
X46260Y-36260
X46260Y-39331
X48465Y-18701
X48465Y-26575
X48465Y-34055
X51535Y-18701
X51535Y-26575
X51535Y-34055
X53740Y-21299
X53740Y-24370
X53740Y-28780
X53740Y-31850
X53740Y-36260
X53740Y-39331
X55945Y-18701
X55945Y-26575
X55945Y-34055
X59016Y-18701
X59016Y-26575
X59016Y-34055
X61220Y-13819
X61220Y-16890
X61220Y-21299
X61220Y-24370
X61220Y-28780
X61220Y-31850
X61220Y-36260
X61220Y-39331
X63425Y-26575
X63425Y-34055
X66496Y-26575
X66496Y-34055
X68701Y-13819
X68701Y-16890
X68701Y-28780
X68701Y-31850
X70906Y-26575
X70906Y-34055
X71575Y-49952
X73110Y-47292
X73976Y-26575
X73976Y-34055
X75934Y-46575
X77972Y-53889
X78594Y-48110
X79508Y-51229
X81713Y-47294
X82529Y-50315
X83248Y-44635
X85188Y-51850
T3
X34449Y-40650
X35630Y-40650
X53740Y-26575
X61220Y-34055
T4
X33476Y-27315
X33476Y-33315
X34476Y-27315
X34476Y-33315
X35476Y-27315
X35476Y-33315
X36476Y-27315
X36476Y-33315
X37476Y-27315
X37476Y-33315
X38476Y-27315
X38476Y-33315
X39476Y-27315
X39476Y-33315
X40476Y-27315
X40476Y-33315
X41476Y-27315
X41476Y-33315
X42476Y-27315
X42476Y-33315
X43476Y-27315
X43476Y-33315
X44476Y-27315
X44476Y-33315
T5
X33539Y-14354
X33539Y-21835
X33539Y-29315
X33539Y-36795
X34039Y-13354
X34039Y-20835
X34039Y-28315
X34039Y-35795
X36039Y-13354
X36039Y-20835
X36039Y-28315
X36039Y-35795
X36539Y-14354
X36539Y-21835
X36539Y-29315
X36539Y-36795
X41020Y-14354
X41020Y-21835
X41020Y-29315
X41020Y-36795
X41520Y-13354
X41520Y-20835
X41520Y-28315
X41520Y-35795
X43520Y-13354
X43520Y-20835
X43520Y-28315
X43520Y-35795
X44020Y-14354
X44020Y-21835
X44020Y-29315
X44020Y-36795
X48500Y-14354
X48500Y-21835
X48500Y-29315
X48500Y-36795
X49000Y-13354
X49000Y-20835
X49000Y-28315
X49000Y-35795
X51000Y-13354
X51000Y-20835
X51000Y-28315
X51000Y-35795
X51500Y-14354
X51500Y-21835
X51500Y-29315
X51500Y-36795
X55980Y-14354
X55980Y-21835
X55980Y-29315
X55980Y-36795
X56480Y-13354
X56480Y-20835
X56480Y-28315
X56480Y-35795
X58480Y-13354
X58480Y-20835
X58480Y-28315
X58480Y-35795
X58980Y-14354
X58980Y-21835
X58980Y-29315
X58980Y-36795
X63461Y-14354
X63461Y-21835
X63461Y-29315
X63461Y-36795
X63961Y-13354
X63961Y-20835
X63961Y-28315
X63961Y-35795
X65961Y-13354
X65961Y-20835
X65961Y-28315
X65961Y-35795
X66461Y-14354
X66461Y-21835
X66461Y-29315
X66461Y-36795
X68217Y-45234
X69150Y-44618
X70815Y-46734
X70882Y-45618
X70941Y-14354
X70941Y-21835
X70941Y-29315
X70941Y-36795
X71441Y-13354
X71441Y-20835
X71441Y-28315
X71441Y-35795
X73441Y-13354
X73441Y-20835
X73441Y-28315
X73441Y-35795
X73941Y-14354
X73941Y-21835
X73941Y-29315
X73941Y-36795
X74713Y-48975
X75646Y-48359
X77311Y-50475
X77378Y-49359
X78453Y-42478
X79386Y-41862
X81051Y-43978
X81118Y-42862
X81209Y-52715
X82142Y-52099
X83807Y-54215
X83874Y-53099
X84949Y-46219
X85882Y-45603
X87547Y-47719
X87614Y-46603
T1
X73278Y-42398G85X73005Y-42240
G05
X73802Y-42200G85X74074Y-42357
G05
X74623Y-40856G85X74828Y-40974
G05
X75180Y-39813G85X75452Y-39971
G05
X75711Y-43302G85X75438Y-43145
G05
X75801Y-43854G85X76074Y-44012
G05
X76464Y-41919G85X76260Y-41801
G05
X77089Y-40915G85X76816Y-40758
G05
T0
M30
