G04 #@! TF.FileFunction,Soldermask,Top*
%FSLAX46Y46*%
G04 Gerber Fmt 4.6, Leading zero omitted, Abs format (unit mm)*
G04 Created by KiCad (PCBNEW 4.0.7) date 2017 December 06, Wednesday 22:25:54*
%MOMM*%
%LPD*%
G01*
G04 APERTURE LIST*
%ADD10C,0.100000*%
%ADD11C,2.600000*%
%ADD12C,2.686000*%
%ADD13C,8.800000*%
%ADD14C,2.000000*%
%ADD15R,1.600000X1.600000*%
%ADD16R,2.000000X2.000000*%
%ADD17C,1.900000*%
%ADD18C,1.600000*%
%ADD19R,2.100000X2.100000*%
%ADD20R,2.152600X2.152600*%
%ADD21C,2.152600*%
G04 APERTURE END LIST*
D10*
D11*
X155500000Y-67500000D03*
X155500000Y-51000000D03*
X117500000Y-51000000D03*
D12*
X181460000Y-71920000D03*
X186540000Y-71920000D03*
X187810000Y-74460000D03*
X180190000Y-74460000D03*
D13*
X136500000Y-45250000D03*
D11*
X82000000Y-67500000D03*
X191000000Y-67500000D03*
D13*
X174500000Y-63500000D03*
X98500000Y-63500000D03*
D11*
X82000000Y-48500000D03*
X117500000Y-67500000D03*
X155500000Y-32000000D03*
X117500000Y-103000000D03*
D10*
G36*
X208419680Y-117021170D02*
X209805320Y-117821170D01*
X209005320Y-119206810D01*
X207619680Y-118406810D01*
X208419680Y-117021170D01*
X208419680Y-117021170D01*
G37*
G36*
X209994680Y-114293190D02*
X211380320Y-115093190D01*
X210580320Y-116478830D01*
X209194680Y-115678830D01*
X209994680Y-114293190D01*
X209994680Y-114293190D01*
G37*
G36*
X211083975Y-112006476D02*
X212816025Y-113006476D01*
X211816025Y-114738526D01*
X210083975Y-113738526D01*
X211083975Y-112006476D01*
X211083975Y-112006476D01*
G37*
D14*
X207550000Y-120127499D03*
D12*
X105460000Y-71920000D03*
X110540000Y-71920000D03*
X111810000Y-74460000D03*
X104190000Y-74460000D03*
X181460000Y-52920000D03*
X186540000Y-52920000D03*
X187810000Y-55460000D03*
X180190000Y-55460000D03*
D13*
X204750000Y-125000000D03*
D12*
X105460000Y-52920000D03*
X110540000Y-52920000D03*
X111810000Y-55460000D03*
X104190000Y-55460000D03*
D13*
X98500000Y-90500000D03*
D12*
X162460000Y-71920000D03*
X167540000Y-71920000D03*
X168810000Y-74460000D03*
X161190000Y-74460000D03*
X86460000Y-71920000D03*
X91540000Y-71920000D03*
X92810000Y-74460000D03*
X85190000Y-74460000D03*
D15*
X174500000Y-40575000D03*
X174500000Y-37425000D03*
D16*
X174500000Y-35100000D03*
D14*
X174500000Y-42900000D03*
D15*
X117500000Y-59575000D03*
X117500000Y-56425000D03*
D16*
X117500000Y-54100000D03*
D14*
X117500000Y-61900000D03*
D15*
X128575000Y-67500000D03*
X125425000Y-67500000D03*
D16*
X123100000Y-67500000D03*
D14*
X130900000Y-67500000D03*
D15*
X136500000Y-59575000D03*
X136500000Y-56425000D03*
D16*
X136500000Y-54100000D03*
D14*
X136500000Y-61900000D03*
D15*
X147575000Y-67500000D03*
X144425000Y-67500000D03*
D16*
X142100000Y-67500000D03*
D14*
X149900000Y-67500000D03*
D15*
X155500000Y-59575000D03*
X155500000Y-56425000D03*
D16*
X155500000Y-54100000D03*
D14*
X155500000Y-61900000D03*
D15*
X185575000Y-67500000D03*
X182425000Y-67500000D03*
D16*
X180100000Y-67500000D03*
D14*
X187900000Y-67500000D03*
D15*
X117500000Y-78575000D03*
X117500000Y-75425000D03*
D16*
X117500000Y-73100000D03*
D14*
X117500000Y-80900000D03*
D15*
X136500000Y-78575000D03*
X136500000Y-75425000D03*
D16*
X136500000Y-73100000D03*
D14*
X136500000Y-80900000D03*
D15*
X147575000Y-86500000D03*
X144425000Y-86500000D03*
D16*
X142100000Y-86500000D03*
D14*
X149900000Y-86500000D03*
D15*
X155500000Y-78575000D03*
X155500000Y-75425000D03*
D16*
X155500000Y-73100000D03*
D14*
X155500000Y-80900000D03*
D15*
X166575000Y-67500000D03*
X163425000Y-67500000D03*
D16*
X161100000Y-67500000D03*
D14*
X168900000Y-67500000D03*
D15*
X174500000Y-78575000D03*
X174500000Y-75425000D03*
D16*
X174500000Y-73100000D03*
D14*
X174500000Y-80900000D03*
D15*
X117500000Y-97575000D03*
X117500000Y-94425000D03*
D16*
X117500000Y-92100000D03*
D14*
X117500000Y-99900000D03*
D15*
X128575000Y-86500000D03*
X125425000Y-86500000D03*
D16*
X123100000Y-86500000D03*
D14*
X130900000Y-86500000D03*
D15*
X136500000Y-97575000D03*
X136500000Y-94425000D03*
D16*
X136500000Y-92100000D03*
D14*
X136500000Y-99900000D03*
D15*
X155500000Y-97575000D03*
X155500000Y-94425000D03*
D16*
X155500000Y-92100000D03*
D14*
X155500000Y-99900000D03*
D15*
X166575000Y-86500000D03*
X163425000Y-86500000D03*
D16*
X161100000Y-86500000D03*
D14*
X168900000Y-86500000D03*
D10*
G36*
X182669680Y-123771170D02*
X184055320Y-124571170D01*
X183255320Y-125956810D01*
X181869680Y-125156810D01*
X182669680Y-123771170D01*
X182669680Y-123771170D01*
G37*
G36*
X184244680Y-121043190D02*
X185630320Y-121843190D01*
X184830320Y-123228830D01*
X183444680Y-122428830D01*
X184244680Y-121043190D01*
X184244680Y-121043190D01*
G37*
G36*
X185333975Y-118756476D02*
X187066025Y-119756476D01*
X186066025Y-121488526D01*
X184333975Y-120488526D01*
X185333975Y-118756476D01*
X185333975Y-118756476D01*
G37*
D14*
X181800000Y-126877499D03*
D10*
G36*
X198919680Y-133771170D02*
X200305320Y-134571170D01*
X199505320Y-135956810D01*
X198119680Y-135156810D01*
X198919680Y-133771170D01*
X198919680Y-133771170D01*
G37*
G36*
X200494680Y-131043190D02*
X201880320Y-131843190D01*
X201080320Y-133228830D01*
X199694680Y-132428830D01*
X200494680Y-131043190D01*
X200494680Y-131043190D01*
G37*
G36*
X201583975Y-128756476D02*
X203316025Y-129756476D01*
X202316025Y-131488526D01*
X200583975Y-130488526D01*
X201583975Y-128756476D01*
X201583975Y-128756476D01*
G37*
D14*
X198050000Y-136877499D03*
D10*
G36*
X213271170Y-130830320D02*
X214071170Y-129444680D01*
X215456810Y-130244680D01*
X214656810Y-131630320D01*
X213271170Y-130830320D01*
X213271170Y-130830320D01*
G37*
G36*
X210543190Y-129255320D02*
X211343190Y-127869680D01*
X212728830Y-128669680D01*
X211928830Y-130055320D01*
X210543190Y-129255320D01*
X210543190Y-129255320D01*
G37*
G36*
X208256476Y-128166025D02*
X209256476Y-126433975D01*
X210988526Y-127433975D01*
X209988526Y-129166025D01*
X208256476Y-128166025D01*
X208256476Y-128166025D01*
G37*
D14*
X216377499Y-131700000D03*
D10*
G36*
X196521170Y-121330320D02*
X197321170Y-119944680D01*
X198706810Y-120744680D01*
X197906810Y-122130320D01*
X196521170Y-121330320D01*
X196521170Y-121330320D01*
G37*
G36*
X193793190Y-119755320D02*
X194593190Y-118369680D01*
X195978830Y-119169680D01*
X195178830Y-120555320D01*
X193793190Y-119755320D01*
X193793190Y-119755320D01*
G37*
G36*
X191506476Y-118666025D02*
X192506476Y-116933975D01*
X194238526Y-117933975D01*
X193238526Y-119666025D01*
X191506476Y-118666025D01*
X191506476Y-118666025D01*
G37*
D14*
X199627499Y-122200000D03*
D17*
X191416923Y-107626907D03*
X194916923Y-101564729D03*
D18*
X190955930Y-101125369D02*
X191648750Y-101525369D01*
X189455930Y-103723446D02*
X190148750Y-104123446D01*
X187455930Y-107187547D02*
X188148750Y-107587547D01*
X192535095Y-111390175D02*
X193227915Y-111790175D01*
X186126507Y-107690175D02*
X185433687Y-107290175D01*
X192305672Y-109987547D02*
X191612852Y-109587547D01*
X194305672Y-106523446D02*
X193612852Y-106123446D01*
X195805672Y-103925369D02*
X195112852Y-103525369D01*
D17*
X193444680Y-100714729D03*
X189944680Y-106776907D03*
D12*
X86460000Y-52920000D03*
X91540000Y-52920000D03*
X92810000Y-55460000D03*
X85190000Y-55460000D03*
X124460000Y-52920000D03*
X129540000Y-52920000D03*
X130810000Y-55460000D03*
X123190000Y-55460000D03*
X143460000Y-52920000D03*
X148540000Y-52920000D03*
X149810000Y-55460000D03*
X142190000Y-55460000D03*
X162460000Y-52920000D03*
X167540000Y-52920000D03*
X168810000Y-55460000D03*
X161190000Y-55460000D03*
X124460000Y-71920000D03*
X129540000Y-71920000D03*
X130810000Y-74460000D03*
X123190000Y-74460000D03*
X143460000Y-71920000D03*
X148540000Y-71920000D03*
X149810000Y-74460000D03*
X142190000Y-74460000D03*
X86460000Y-90920000D03*
X91540000Y-90920000D03*
X92810000Y-93460000D03*
X85190000Y-93460000D03*
X105460000Y-90920000D03*
X110540000Y-90920000D03*
X111810000Y-93460000D03*
X104190000Y-93460000D03*
X124460000Y-90920000D03*
X129540000Y-90920000D03*
X130810000Y-93460000D03*
X123190000Y-93460000D03*
X143460000Y-90920000D03*
X148540000Y-90920000D03*
X149810000Y-93460000D03*
X142190000Y-93460000D03*
X162460000Y-90920000D03*
X167540000Y-90920000D03*
X168810000Y-93460000D03*
X161190000Y-93460000D03*
X181460000Y-90920000D03*
X186540000Y-90920000D03*
X187810000Y-93460000D03*
X180190000Y-93460000D03*
X175640295Y-113330591D03*
X180039705Y-115870591D03*
X179869557Y-118705295D03*
X173270443Y-114895295D03*
X192140295Y-122830591D03*
X196539705Y-125370591D03*
X196369557Y-128205295D03*
X189770443Y-124395295D03*
X208640295Y-132330591D03*
X213039705Y-134870591D03*
X212869557Y-137705295D03*
X206270443Y-133895295D03*
X218140295Y-115830591D03*
X222539705Y-118370591D03*
X222369557Y-121205295D03*
X215770443Y-117395295D03*
X201640295Y-106330591D03*
X206039705Y-108870591D03*
X205869557Y-111705295D03*
X199270443Y-107895295D03*
D19*
X155500000Y-86500000D03*
X90500000Y-103250000D03*
X87500000Y-103250000D03*
X136500000Y-67500000D03*
D11*
X117500000Y-32000000D03*
X190000000Y-116500000D03*
X196500000Y-139250000D03*
X213000000Y-110750000D03*
X191000000Y-86500000D03*
X191000000Y-48500000D03*
X155500000Y-103000000D03*
X82000000Y-86500000D03*
D13*
X174500000Y-90500000D03*
D20*
X85030000Y-69380000D03*
D21*
X87570000Y-69380000D03*
X90110000Y-69380000D03*
X92650000Y-69380000D03*
X95190000Y-69380000D03*
X97730000Y-69380000D03*
X100270000Y-69380000D03*
X102810000Y-69380000D03*
X105350000Y-69380000D03*
X107890000Y-69380000D03*
X110430000Y-69380000D03*
X112970000Y-84620000D03*
X110430000Y-84620000D03*
X107890000Y-84620000D03*
X105350000Y-84620000D03*
X102810000Y-84620000D03*
X100270000Y-84620000D03*
X97730000Y-84620000D03*
X95190000Y-84620000D03*
X92650000Y-84620000D03*
X90110000Y-84620000D03*
X87570000Y-84620000D03*
X112970000Y-69380000D03*
X85030000Y-84620000D03*
D15*
X98500000Y-40575000D03*
X98500000Y-37425000D03*
D16*
X98500000Y-35100000D03*
D14*
X98500000Y-42900000D03*
D15*
X117500000Y-40575000D03*
X117500000Y-37425000D03*
D16*
X117500000Y-35100000D03*
D14*
X117500000Y-42900000D03*
D15*
X128575000Y-47500000D03*
X125425000Y-47500000D03*
D16*
X123100000Y-47500000D03*
D14*
X130900000Y-47500000D03*
D15*
X147575000Y-47500000D03*
X144425000Y-47500000D03*
D16*
X142100000Y-47500000D03*
D14*
X149900000Y-47500000D03*
D15*
X155500000Y-40575000D03*
X155500000Y-37425000D03*
D16*
X155500000Y-35100000D03*
D14*
X155500000Y-42900000D03*
D12*
X86460000Y-33920000D03*
X91540000Y-33920000D03*
X92810000Y-36460000D03*
X85190000Y-36460000D03*
X105460000Y-33920000D03*
X110540000Y-33920000D03*
X111810000Y-36460000D03*
X104190000Y-36460000D03*
X124460000Y-33920000D03*
X129540000Y-33920000D03*
X130810000Y-36460000D03*
X123190000Y-36460000D03*
X143460000Y-33920000D03*
X148540000Y-33920000D03*
X149810000Y-36460000D03*
X142190000Y-36460000D03*
X162460000Y-33920000D03*
X167540000Y-33920000D03*
X168810000Y-36460000D03*
X161190000Y-36460000D03*
X181460000Y-33920000D03*
X186540000Y-33920000D03*
X187810000Y-36460000D03*
X180190000Y-36460000D03*
D15*
X185575000Y-86500000D03*
X182425000Y-86500000D03*
D16*
X180100000Y-86500000D03*
D14*
X187900000Y-86500000D03*
M02*
